<?xml version="1.0" encoding="UTF-8" standalone="no"?>
<!-- Created with Inkscape (http://www.inkscape.org/) -->

<svg
   xmlns:dc="http://purl.org/dc/elements/1.1/"
   xmlns:cc="http://creativecommons.org/ns#"
   xmlns:rdf="http://www.w3.org/1999/02/22-rdf-syntax-ns#"
   xmlns:svg="http://www.w3.org/2000/svg"
   xmlns="http://www.w3.org/2000/svg"
   xmlns:sodipodi="http://sodipodi.sourceforge.net/DTD/sodipodi-0.dtd"
   xmlns:inkscape="http://www.inkscape.org/namespaces/inkscape"
   width="850"
   height="1100"
   id="svg3061"
   version="1.1"
   inkscape:version="0.48.3.1 r9886"
   sodipodi:docname="New document 5">
  <title
     id="title3078">dimpled frame</title>
  <defs
     id="defs3063" />
  <sodipodi:namedview
     id="base"
     pagecolor="#ffffff"
     bordercolor="#666666"
     borderopacity="1.0"
     inkscape:pageopacity="0.0"
     inkscape:pageshadow="2"
     inkscape:zoom="0.23"
     inkscape:cx="269.68156"
     inkscape:cy="602.77124"
     inkscape:document-units="px"
     inkscape:current-layer="layer1"
     showgrid="false"
     fit-margin-top="0"
     fit-margin-left="0"
     fit-margin-right="0"
     fit-margin-bottom="0"
     inkscape:window-width="727"
     inkscape:window-height="742"
     inkscape:window-x="692"
     inkscape:window-y="0"
     inkscape:window-maximized="0" />
  <metadata
     id="metadata3066">
    <rdf:RDF>
      <cc:Work
         rdf:about="">
        <dc:format>image/svg+xml</dc:format>
        <dc:type
           rdf:resource="http://purl.org/dc/dcmitype/StillImage" />
        <cc:license
           rdf:resource="http://creativecommons.org/licenses/publicdomain/" />
        <dc:title>dimpled frame</dc:title>
        <dc:date>04/27/2013</dc:date>
        <dc:creator>
          <cc:Agent>
            <dc:title>edited by Paul Sherman</dc:title>
          </cc:Agent>
        </dc:creator>
        <dc:rights>
          <cc:Agent>
            <dc:title>PD</dc:title>
          </cc:Agent>
        </dc:rights>
        <dc:publisher>
          <cc:Agent>
            <dc:title>WPClipart</dc:title>
          </cc:Agent>
        </dc:publisher>
        <dc:subject>
          <rdf:Bag>
            <rdf:li>dimpled</rdf:li>
            <rdf:li>frame</rdf:li>
            <rdf:li>border</rdf:li>
            <rdf:li>page</rdf:li>
          </rdf:Bag>
        </dc:subject>
      </cc:Work>
      <cc:License
         rdf:about="http://creativecommons.org/licenses/publicdomain/">
        <cc:permits
           rdf:resource="http://creativecommons.org/ns#Reproduction" />
        <cc:permits
           rdf:resource="http://creativecommons.org/ns#Distribution" />
        <cc:permits
           rdf:resource="http://creativecommons.org/ns#DerivativeWorks" />
      </cc:License>
    </rdf:RDF>
  </metadata>
  <g
     inkscape:label="Layer 1"
     inkscape:groupmode="layer"
     id="layer1"
     transform="translate(447.85714,297.63782)">
    <g
       transform="matrix(1.142328,0,0,1.0452675,-447.85714,-297.63782)"
       id="layer1-6">
      <path
         inkscape:connector-curvature="0"
         d="M 10.043455,-4.7244096e-6 10.043455,487.76072 0,526.18109 l 10.043455,38.45157 0,487.72954 335.451405,0 26.55238,-9.9874 26.55239,9.9874 335.4514,0 0,-487.72954 10.04346,-38.45157 -10.04346,-38.42037 0,-487.7607247244096 -335.4514,0 L 372.04724,9.9874174 345.49486,-4.7244096e-6 l -335.451405,0 z M 16.979717,6.8975587 l 328.515143,0 26.55238,9.9874223 26.55239,-9.9874223 328.51514,0 0,480.8631613 10.04346,38.42037 -10.04346,38.45157 0,480.83194 -328.51514,0 -26.55239,-9.9874 -26.55238,9.9874 -328.515143,0 0,-480.83194 -10.0434558,-38.45157 10.0434558,-38.42037 0,-480.8631613 z m 4.237082,4.0886013 0,476.77456 -10.043455,38.42037 10.043455,38.45157 0,476.74334 324.278061,0 26.55238,-9.9874 26.55239,9.9874 324.27806,0 0,-476.74334 10.04345,-38.45157 -10.04345,-38.42037 0,-476.77456 -324.27806,0 -26.55239,9.987422 -26.55238,-9.987422 -324.278061,0 z m 6.936261,6.897563 317.3418,0 26.55238,9.987423 26.55239,-9.987423 317.3418,0 0,469.876997 10.04345,38.42037 -10.04345,38.45157 0,469.84574 -317.3418,0 -26.55239,-9.9874 -26.55238,9.9874 -317.3418,0 0,-469.84574 -10.043455,-38.45157 10.043455,-38.42037 0,-469.876997 z m 0,486.449877 -5.837758,21.84749 5.837758,21.84748 0,-43.69497 z m 687.78837,0 0,21.84749 0,21.84748 5.83775,-21.84748 -5.83775,-21.84749 z"
         id="path2442"
         style="fill:#000000;fill-opacity:1;fill-rule:evenodd;stroke:none" />
    </g>
  </g>
</svg>
